<?xml version="1.0" encoding="utf-8"?>
<svg id="master-artboard" viewBox="0 0 1297.6680908203125 341.1170959472656" version="1.1" xmlns="http://www.w3.org/2000/svg" x="0px" y="0px" style="enable-background:new 0 0 336 235.2;" width="137px" height="36px"><rect id="ee-background" x="0" y="0" width="137" height="36" style="fill: white; fill-opacity: 0; pointer-events: none;"/><g transform="matrix(5.214245068693371, 0, 0, 5.214245068693371, 52.98166083752403, -6.277236366258876e-7)"><metadata id="metadata8"/><g id="g12" transform="matrix(0.13333332737286874, 0, 0, -0.13333332737286874, 0, 187.94667333285017)"><path d="M 511.844,63.3594 H 224.703 L 88.7969,430.477 h 11.8441 l 145.882,-174.606 119.7,173.367 h 1.605 0.891 1.601 L 490.02,255.871 635.906,430.477 H 647.75 Z M 605.465,492.219 493.242,357.121 404.918,492.219 H 331.629 L 243.301,357.121 131.074,492.219 H 0 L 180.117,2.01172 h 187.711 0.891 187.703 L 736.547,492.219 H 605.465" style="fill:#231f20;fill-opacity:1;fill-rule:nonzero;stroke:none" id="path14" transform="matrix(1, 0, 0, 1, -73.5954454680217, 914.970424080417)"/><path d="m 884.523,391.102 c 0,-12.954 -1.234,-24.391 -3.687,-34.293 -2.449,-9.911 -8.481,-17.911 -18.094,-23.981 h 60.043 v 107.145 h -38.262 z m 98.899,98.308 V 332.828 h 24.728 V 242.16 h -2.95 -49.45 v 41.211 H 839.785 V 242.16 h -2.941 -49.461 v 90.668 c 0.984,0 1.922,0.043 2.805,0.141 0.875,0.09 1.812,0.25 2.789,0.441 8.246,1.57 15.945,6.031 23.109,13.399 7.152,7.363 11.23,18.39 12.207,33.113 0.195,2.348 0.301,4.758 0.301,7.207 0,2.453 0,4.953 0,7.5 0,0.793 0,1.582 0,2.359 0,0.782 0,1.563 0,2.364 v 90.058 h 2.945 151.883" style="fill:#231f20;fill-opacity:1;fill-rule:nonzero;stroke:none" id="path16" transform="matrix(1, 0, 0, 1, -73.5954454680217, 914.970424080417)"/><path d="m 1140.33,369.32 -52.68,-85.949 h -73.89 l 75.06,105.09 -68.88,100.949 h 2.94 65.64 l 51.81,-84.769 v 84.769 h 2.95 57.68 v -84.769 l 51.81,84.769 h 2.94 65.64 l -68.87,-100.949 75.05,-105.09 h -2.94 -70.94 l -52.69,85.949 v -85.949 h -2.94 -57.69 v 85.949" style="fill:#231f20;fill-opacity:1;fill-rule:nonzero;stroke:none" id="path18" transform="matrix(1, 0, 0, 1, -73.5954454680217, 914.970424080417)"/><path d="m 1398.68,364.32 h 44.15 l -22.08,72.707 z m -14.42,125.09 h 2.93 70.06 l 73,-206.039 h -2.94 -61.82 l -11.18,35.617 h -67.12 l -11.48,-35.617 h -2.94 -61.81 l 73.3,206.039" style="fill:#231f20;fill-opacity:1;fill-rule:nonzero;stroke:none" id="path20" transform="matrix(1, 0, 0, 1, -73.5954454680217, 914.970424080417)"/><path d="m 1674.45,286.02 c -4.12,-1.758 -8.24,-3.239 -12.36,-4.418 -5.3,-1.563 -10.55,-2.602 -15.75,-3.09 -5.2,-0.481 -10.25,-0.731 -15.16,-0.731 l -2.95,-0.301 c -29.03,0.2 -53.85,9.809 -74.46,28.84 -20.6,19.039 -30.91,45.739 -30.91,80.078 0,35.907 10.79,63.032 32.38,81.387 21.58,18.344 45.62,27.516 72.12,27.516 h 2.93 c 3.54,0 7.17,-0.196 10.89,-0.586 3.73,-0.402 7.56,-0.992 11.5,-1.774 5.87,-1.171 11.71,-2.945 17.51,-5.289 5.78,-2.359 11.33,-5.3 16.62,-8.832 v -59.761 h -2.95 c -1.17,1.382 -2.55,2.851 -4.11,4.418 -1.58,1.578 -3.34,3.242 -5.3,5 -4.32,3.726 -9.67,7.168 -16.04,10.308 -6.39,3.141 -13.68,4.805 -21.93,5 -16.09,-0.39 -28.65,-6.422 -37.67,-18.097 -9.03,-11.684 -13.54,-25.368 -13.54,-41.059 0,-17.668 5.04,-31.258 15.15,-40.77 10.11,-9.519 22.12,-14.468 36.06,-14.859 10.4,0.391 19.57,2.84 27.52,7.359 7.95,4.512 14.58,9.512 19.86,15 h 2.95 v -58.57 c -4.12,-2.75 -8.23,-5 -12.36,-6.769" style="fill:#231f20;fill-opacity:1;fill-rule:nonzero;stroke:none" id="path22" transform="matrix(1, 0, 0, 1, -73.5954454680217, 914.970424080417)"/><path d="m 1755.3,439.973 h -45.33 v 49.437 h 151.3 v -49.437 h -45.33 V 283.371 h -2.94 -57.7 v 156.602" style="fill:#231f20;fill-opacity:1;fill-rule:nonzero;stroke:none" id="path24" transform="matrix(1, 0, 0, 1, -73.5954454680217, 914.970424080417)"/><path d="m 805.926,211.922 h 60.644 v -82.41 l 59.16,82.41 h 2.946 67.691 L 918.074,112.141 998.43,5.87891 h -2.946 -72.109 L 866.57,90.0703 V 5.87891 h -2.941 -57.703 V 211.922" style="fill:#231f20;fill-opacity:1;fill-rule:nonzero;stroke:none" id="path26" transform="matrix(1, 0, 0, 1, -73.5954454680217, 914.970424080417)"/><path d="m 1110.76,49.8906 c 2.15,0.2891 4.31,0.8399 6.47,1.6211 9.42,2.5469 18.01,8.2891 25.76,17.2188 7.75,8.9297 11.62,22.3203 11.62,40.1795 0,17.852 -3.92,31.238 -11.78,40.18 -7.84,8.922 -16.37,14.66 -25.6,17.211 -2.16,0.59 -4.27,1.078 -6.33,1.469 -2.06,0.402 -4.08,0.589 -6.03,0.589 -2.16,0 -4.42,-0.187 -6.78,-0.589 -2.34,-0.391 -4.61,-0.969 -6.76,-1.75 -9.02,-2.75 -17.32,-8.59 -24.87,-17.532 -7.55,-8.918 -11.33,-22.117 -11.33,-39.578 0,-17.4686 3.78,-30.6717 11.33,-39.5897 7.55,-8.9414 15.85,-14.7695 24.87,-17.5117 2.15,-0.7891 4.37,-1.3789 6.62,-1.7695 2.26,-0.3985 4.45,-0.5899 6.62,-0.5899 1.96,0 4.03,0.1524 6.19,0.4414 z m -89.78,-17.2187 c -18.84,21.7773 -28.257,47.1875 -28.257,76.2381 0,28.84 9.277,54.199 27.817,76.09 18.53,21.871 46.16,32.809 82.86,32.809 h 2.94 c 36.69,0 64.32,-10.938 82.86,-32.809 18.54,-21.891 27.81,-47.25 27.81,-76.09 0,-29.0506 -9.27,-54.3592 -27.81,-75.9412 C 1170.66,11.3789 1143.03,0.488281 1106.34,0.300781 L 1103.4,0 c -36.12,0 -63.58,10.8906 -82.42,32.6719" style="fill:#231f20;fill-opacity:1;fill-rule:nonzero;stroke:none" id="path28" transform="matrix(1, 0, 0, 1, -73.5954454680217, 914.970424080417)"/><path d="m 1385.09,75.9414 c 2.15,0 4.79,0.25 7.95,0.7383 3.12,0.4805 6.26,1.3086 9.42,2.5 5.87,2.1523 11.23,6.0703 16.03,11.7695 4.81,5.6914 7.21,14.4218 7.21,26.1918 0,11.781 -2.4,20.507 -7.21,26.211 -4.8,5.687 -10.16,9.609 -16.03,11.769 -3.16,1.168 -6.3,2.008 -9.42,2.5 -3.16,0.488 -5.8,0.738 -7.95,0.738 z m -52.4,82.4176 c -11.19,-0.199 -19.57,-2.558 -25.17,-7.07 -5.59,-4.519 -9.56,-9.519 -11.92,-15 -1.57,-3.75 -2.56,-7.367 -2.95,-10.898 -0.39,-3.532 -0.58,-6.282 -0.58,-8.25 0,-1.961 0.19,-4.7 0.58,-8.231 0.39,-3.539 1.38,-7.16 2.95,-10.8905 2.36,-5.4882 6.33,-10.5 11.92,-15.0195 5.6,-4.5117 13.98,-6.8711 25.17,-7.0586 z m -4.11,-123.6285 c -4.92,0 -10.01,0.1992 -15.31,0.5898 -5.3,0.3906 -10.7,1.1797 -16.2,2.3516 -16.48,3.3398 -31.54,10.8984 -45.18,22.6679 -13.64,11.7696 -20.45,30.711 -20.45,56.8012 0,25.91 6.86,44.789 20.59,56.66 13.75,11.871 28.86,19.578 45.34,23.121 4.71,0.969 9.37,1.668 13.98,2.058 4.61,0.391 9.08,0.579 13.39,0.579 0.39,0 0.74,0 1.03,0 0.3,0 0.64,0 1.03,0 0.2,0 0.5,0 0.89,0 0.39,0 0.69,0 0.89,0 v 22.671 h 2.94 57.69 v -22.671 c 0.78,0 1.56,0 2.35,0 0.79,0 1.57,0 2.35,0 5.11,0 11.14,-0.387 18.11,-1.168 6.96,-0.782 14.17,-2.461 21.62,-5.012 13.15,-4.32 25.23,-12.207 36.21,-23.688 11,-11.48 16.49,-28.992 16.49,-52.55 0,-26.4808 -6.91,-45.5707 -20.75,-57.2426 -13.84,-11.6679 -29.09,-19.1875 -45.76,-22.5273 -5.31,-0.9727 -10.56,-1.6602 -15.76,-2.0508 -5.2,-0.3906 -10.16,-0.5898 -14.86,-0.5898 V 5.87891 h -2.95 -57.68 V 34.7305" style="fill:#231f20;fill-opacity:1;fill-rule:nonzero;stroke:none" id="path30" transform="matrix(1, 0, 0, 1, -73.5954454680217, 914.970424080417)"/><path d="m 1510.2,211.922 h 126.57 V 162.48 h -65.92 v -28.859 h 59.74 V 88.3008 h -59.74 v -32.961 h 65.92 V 5.87891 h -2.95 -123.62 V 211.922" style="fill:#231f20;fill-opacity:1;fill-rule:nonzero;stroke:none" id="path32" transform="matrix(1, 0, 0, 1, -73.5954454680217, 914.970424080417)"/></g></g></svg>